<svg xmlns="http://www.w3.org/2000/svg" width="1200" height="630" viewBox="0 0 1200 630" role="img" aria-label="Zishun Gao portfolio preview">
  <defs>
    <linearGradient id="page" x1="0" x2="1200" y1="0" y2="630" gradientUnits="userSpaceOnUse">
      <stop stop-color="#fbfcff"/>
      <stop offset=".52" stop-color="#eefaff"/>
      <stop offset="1" stop-color="#eeecff"/>
    </linearGradient>
    <radialGradient id="blue" cx="0" cy="0" r="1" gradientTransform="translate(910 170) rotate(120) scale(420 300)" gradientUnits="userSpaceOnUse">
      <stop stop-color="#66c7ff" stop-opacity=".36"/>
      <stop offset="1" stop-color="#66c7ff" stop-opacity="0"/>
    </radialGradient>
    <radialGradient id="cyan" cx="0" cy="0" r="1" gradientTransform="translate(180 500) scale(380 230)" gradientUnits="userSpaceOnUse">
      <stop stop-color="#20d2be" stop-opacity=".22"/>
      <stop offset="1" stop-color="#20d2be" stop-opacity="0"/>
    </radialGradient>
    <filter id="shadow" x="-20%" y="-20%" width="140%" height="140%">
      <feDropShadow dx="0" dy="28" stdDeviation="36" flood-color="#2e3d52" flood-opacity=".16"/>
    </filter>
  </defs>
  <rect width="1200" height="630" fill="url(#page)"/>
  <rect width="1200" height="630" fill="url(#blue)"/>
  <rect width="1200" height="630" fill="url(#cyan)"/>
  <g opacity=".34" stroke="#b7d9ff" stroke-width="1">
    <path d="M0 90h1200M0 180h1200M0 270h1200M0 360h1200M0 450h1200M0 540h1200"/>
    <path d="M120 0v630M240 0v630M360 0v630M480 0v630M600 0v630M720 0v630M840 0v630M960 0v630M1080 0v630"/>
  </g>
  <g filter="url(#shadow)">
    <rect x="84" y="72" width="1032" height="486" rx="42" fill="#ffffff" fill-opacity=".62" stroke="#ffffff" stroke-width="3"/>
    <rect x="710" y="136" width="320" height="320" rx="44" fill="#ffffff" fill-opacity=".52" stroke="#ffffff" stroke-width="3"/>
    <path d="M782 356c48-96 105-154 174-176" fill="none" stroke="#111827" stroke-opacity=".22" stroke-width="34" stroke-linecap="round"/>
    <path d="M782 356c48-96 105-154 174-176" fill="none" stroke="#31c4ff" stroke-opacity=".42" stroke-width="16" stroke-linecap="round"/>
  </g>
  <text x="140" y="220" fill="#05070d" font-family="-apple-system,BlinkMacSystemFont,'SF Pro Display','Helvetica Neue',Arial,sans-serif" font-size="78" font-weight="700" letter-spacing="0">Zishun Gao</text>
  <text x="144" y="284" fill="#242933" font-family="-apple-system,BlinkMacSystemFont,'SF Pro Text','Helvetica Neue',Arial,sans-serif" font-size="34" font-weight="650">Finance-Focused Data Analyst</text>
  <text x="145" y="350" fill="#59616d" font-family="-apple-system,BlinkMacSystemFont,'SF Pro Text','Helvetica Neue',Arial,sans-serif" font-size="25">SQL · Python · BI Reporting · Business Analysis</text>
  <text x="145" y="415" fill="#0f172a" font-family="-apple-system,BlinkMacSystemFont,'SF Pro Text','Helvetica Neue',Arial,sans-serif" font-size="29" font-weight="650">Case studies in retail ETL, App Store analytics and AEP research design</text>
  <g fill="#1d4ed8" font-family="-apple-system,BlinkMacSystemFont,'SF Pro Text','Helvetica Neue',Arial,sans-serif" font-size="24" font-weight="650">
    <text x="145" y="498">1.6M UK retail records</text>
    <text x="410" y="498">1.23M App Store records</text>
  </g>
</svg>
